<?xml version="1.0" encoding="UTF-8" standalone="no"?>
<svg
   xmlns:dc="http://purl.org/dc/elements/1.1/"
   xmlns:cc="http://creativecommons.org/ns#"
   xmlns:rdf="http://www.w3.org/1999/02/22-rdf-syntax-ns#"
   xmlns:svg="http://www.w3.org/2000/svg"
   xmlns="http://www.w3.org/2000/svg"
   xmlns:sodipodi="http://sodipodi.sourceforge.net/DTD/sodipodi-0.dtd"
   xmlns:inkscape="http://www.inkscape.org/namespaces/inkscape"
   width="21.09375mm"
   height="24mm"
   viewBox="0 0 21.09375 24"
   version="1.1"
   id="svg880"
   inkscape:version="1.0.2 (e86c870879, 2021-01-15, custom)"
   sodipodi:docname="newsHack24.svg">
  <defs
     id="defs874" />
  <sodipodi:namedview
     id="base"
     pagecolor="#ffffff"
     bordercolor="#666666"
     borderopacity="1.0"
     inkscape:pageopacity="0.0"
     inkscape:pageshadow="2"
     inkscape:zoom="0.35"
     inkscape:cx="299.28571"
     inkscape:cy="493.14285"
     inkscape:document-units="mm"
     inkscape:current-layer="layer1"
     inkscape:document-rotation="0"
     showgrid="false"
     fit-margin-top="0"
     fit-margin-left="0"
     fit-margin-right="0"
     fit-margin-bottom="0"
     inkscape:window-width="1442"
     inkscape:window-height="1247"
     inkscape:window-x="1950"
     inkscape:window-y="54"
     inkscape:window-maximized="0" />
  <metadata
     id="metadata877">
    <rdf:RDF>
      <cc:Work
         rdf:about="">
        <dc:format>image/svg+xml</dc:format>
        <dc:type
           rdf:resource="http://purl.org/dc/dcmitype/StillImage" />
        <dc:title></dc:title>
      </cc:Work>
    </rdf:RDF>
  </metadata>
  <g
     inkscape:label="Layer 1"
     inkscape:groupmode="layer"
     id="layer1"
     transform="translate(-26.647322,-17.689287)">
    <g
       id="g952"
       transform="matrix(0.046875,0,0,0.046875,25.194197,17.689287)">
      <g
         id="g886">
	<g
   id="g884">
		<path
   d="m 400.66,282.553 29.488,-29.488 c 26.996,-26.996 27.755,-70.269 2.377,-98.186 L 317.279,27.108 C 301.618,9.88 279.283,0 256,0 232.717,0 210.382,9.88 194.681,27.151 L 79.514,154.835 c -25.447,27.993 -24.662,71.23 2.338,98.229 l 29.488,29.488 C 62.225,304.387 31,352.839 31,406 v 60 c 0,8.284 6.716,15 15,15 h 75 v 16 c 0,8.284 6.716,15 15,15 h 240 c 8.284,0 15,-6.716 15,-15 v -16 h 75 c 8.284,0 15,-6.716 15,-15 V 406 C 481,352.886 449.819,304.406 400.66,282.553 Z M 101.752,174.972 216.919,47.288 C 226.907,36.301 241.151,30 256,30 c 14.849,0 29.093,6.301 39.042,17.245 l 115.246,127.771 c 1.228,1.351 2.353,2.776 3.381,4.258 C 365.509,159.605 308.566,151 256,151 c -51.968,0 -109.166,8.466 -157.662,28.271 1.037,-1.495 2.173,-2.933 3.414,-4.299 z M 331,187.217 V 196 c 0,41.355 -33.645,75 -75,75 -41.355,0 -75,-33.645 -75,-75 v -8.783 C 204.853,183.15 230.167,181 256,181 c 25.833,0 51.147,2.15 75,6.217 z M 361,482 H 151 V 376 c 0,-8.271 6.729,-15 15,-15 h 180 c 8.271,0 15,6.729 15,15 z m 90,-31 h -60 v -75 c 0,-24.813 -20.187,-45 -45,-45 H 166 c -24.813,0 -45,20.187 -45,45 v 75 H 61 v -45 c 0,-49.254 33.472,-91.338 81.396,-102.34 5.318,-1.221 9.553,-5.232 11.061,-10.476 1.507,-5.244 0.048,-10.892 -3.81,-14.75 l -46.582,-46.582 c -4.87,-4.87 -8.37,-10.745 -10.307,-17.157 17.141,-8.601 36.831,-15.716 58.242,-21.154 V 196 c 0,57.897 47.103,105 105,105 57.897,0 105,-47.103 105,-105 v -2.46 c 21.412,5.438 41.101,12.553 58.242,21.154 -1.937,6.412 -5.437,12.287 -10.307,17.157 l -46.582,46.582 c -3.858,3.858 -5.317,9.507 -3.81,14.75 1.507,5.244 5.743,9.255 11.061,10.476 C 417.528,314.662 451,356.746 451,406 Z"
   id="path882" />

	</g>

</g>
      <g
         id="g892">
	<g
   id="g890">
		<path
   d="m 286,391 h -60 c -8.284,0 -15,6.716 -15,15 0,8.284 6.716,15 15,15 h 60 c 8.284,0 15,-6.716 15,-15 0,-8.284 -6.716,-15 -15,-15 z"
   id="path888" />

	</g>

</g>
      <g
         id="g894">
</g>
      <g
         id="g896">
</g>
      <g
         id="g898">
</g>
      <g
         id="g900">
</g>
      <g
         id="g902">
</g>
      <g
         id="g904">
</g>
      <g
         id="g906">
</g>
      <g
         id="g908">
</g>
      <g
         id="g910">
</g>
      <g
         id="g912">
</g>
      <g
         id="g914">
</g>
      <g
         id="g916">
</g>
      <g
         id="g918">
</g>
      <g
         id="g920">
</g>
      <g
         id="g922">
</g>
    </g>
  </g>
</svg>
